<svg width="11" height="10" viewBox="0 0 11 10" fill="none" xmlns="http://www.w3.org/2000/svg">
<path d="M2.4055 1L1 2.4055M10.37 2.4055L8.9645 1M2.874 8.496L1.937 9.433M8.496 8.496L9.433 9.433M5.685 3.811V5.685L6.622 6.622M5.685 9.433C6.67903 9.433 7.63235 9.03812 8.33524 8.33524C9.03812 7.63235 9.433 6.67903 9.433 5.685C9.433 4.69097 9.03812 3.73765 8.33524 3.03476C7.63235 2.33188 6.67903 1.937 5.685 1.937C4.69097 1.937 3.73765 2.33188 3.03476 3.03476C2.33188 3.73765 1.937 4.69097 1.937 5.685C1.937 6.67903 2.33188 7.63235 3.03476 8.33524C3.73765 9.03812 4.69097 9.433 5.685 9.433Z" stroke="#111729" stroke-linecap="round" stroke-linejoin="round"/>
</svg>
