<svg width="22" height="22" viewBox="0 0 22 22" fill="none" xmlns="http://www.w3.org/2000/svg">
<path d="M9.12257 12.1095L19.6226 1.60955M9.25015 12.4376L11.8783 19.1956C12.1098 19.791 12.2255 20.0886 12.3923 20.1755C12.5369 20.2509 12.7092 20.251 12.8539 20.1758C13.0208 20.0891 13.1369 19.7916 13.3691 19.1965L19.9595 2.30875C20.1691 1.77157 20.2739 1.50298 20.2166 1.33135C20.1668 1.1823 20.0498 1.06533 19.9008 1.01554C19.7291 0.958202 19.4606 1.06302 18.9234 1.27265L2.03562 7.86299C1.44055 8.09521 1.14301 8.21133 1.0563 8.37823C0.981136 8.52292 0.981238 8.69517 1.05658 8.83977C1.14348 9.00657 1.44115 9.12233 2.0365 9.35385L8.7945 11.982C8.91535 12.029 8.97578 12.0525 9.02666 12.0888C9.07175 12.1209 9.11119 12.1604 9.14336 12.2055C9.17965 12.2563 9.20315 12.3168 9.25015 12.4376Z" stroke="white" stroke-width="2" stroke-linecap="round" stroke-linejoin="round"/>
</svg>
