<svg width="18" height="16" viewBox="0 0 18 16" fill="none" xmlns="http://www.w3.org/2000/svg">
<path d="M3.4 1L1 3.4M17 3.4L14.6 1M4.2 13.8L2.6 15.4M13.8 13.8L15.4 15.4M9 5.8V9L10.6 10.6M9 15.4C10.6974 15.4 12.3253 14.7257 13.5255 13.5255C14.7257 12.3253 15.4 10.6974 15.4 9C15.4 7.30261 14.7257 5.67475 13.5255 4.47452C12.3253 3.27428 10.6974 2.6 9 2.6C7.30261 2.6 5.67475 3.27428 4.47452 4.47452C3.27428 5.67475 2.6 7.30261 2.6 9C2.6 10.6974 3.27428 12.3253 4.47452 13.5255C5.67475 14.7257 7.30261 15.4 9 15.4Z" stroke="#CCCCCC" stroke-linecap="round" stroke-linejoin="round"/>
</svg>
