<svg width="14" height="14" viewBox="0 0 14 14" fill="none" xmlns="http://www.w3.org/2000/svg">
<path d="M13.1833 14C11.5111 14 9.88115 13.6272 8.29344 12.8816C6.70522 12.1364 5.29874 11.1513 4.074 9.926C2.84874 8.70126 1.86356 7.29478 1.11844 5.70656C0.372815 4.11885 0 2.48889 0 0.816667C0 0.583333 0.0777777 0.388889 0.233333 0.233333C0.388889 0.0777777 0.583333 0 0.816667 0H3.96667C4.14815 0 4.31019 0.0583333 4.45278 0.175C4.59537 0.291667 4.67963 0.440741 4.70556 0.622222L5.21111 3.34444C5.23704 3.52593 5.23393 3.69107 5.20178 3.83989C5.16911 3.98922 5.09444 4.12222 4.97778 4.23889L3.11111 6.14444C3.65556 7.07778 4.33611 7.95278 5.15278 8.76944C5.96944 9.58611 6.87037 10.2926 7.85556 10.8889L9.68333 9.06111C9.8 8.94444 9.95244 8.85682 10.1407 8.79822C10.3284 8.74015 10.513 8.72407 10.6944 8.75L13.3778 9.29444C13.5593 9.33333 13.7083 9.4207 13.825 9.55656C13.9417 9.69293 14 9.85185 14 10.0333V13.1833C14 13.4167 13.9222 13.6111 13.7667 13.7667C13.6111 13.9222 13.4167 14 13.1833 14Z" fill="#409BEE"/>
</svg>
