<svg width="307" height="114" viewBox="0 0 307 114" fill="none" xmlns="http://www.w3.org/2000/svg">
<path d="M1 112.297C9.28275 106.439 18.0527 88.8661 26.3355 85.9372C34.6182 83.0084 43.3882 94.7239 51.6709 103.51C60.4409 112.297 68.7236 118.155 77.0064 106.439C85.7764 94.7238 94.0591 65.4351 102.829 50.7908C111.112 36.1464 125.926 39.0753 125.926 39.0753C134.209 39.0753 142.404 44.9331 150.686 50.7908C158.969 56.6485 170.553 59.5774 178.835 59.5774C187.605 59.5774 195.888 47.8619 204.171 36.1464C212.941 24.431 221.224 12.7155 229.506 12.7155C238.276 12.7155 246.559 24.431 255.329 39.0753C263.612 53.7197 271.895 71.2929 280.665 65.4351C288.947 59.5774 297.717 30.2887 301.615 15.6444L306 1" stroke="url(#paint0_radial_1_201)" stroke-width="2"/>
<defs>
<radialGradient id="paint0_radial_1_201" cx="0" cy="0" r="1" gradientUnits="userSpaceOnUse" gradientTransform="translate(153.5 57) rotate(81.4283) scale(56.6326 154.189)">
<stop stop-color="white"/>
<stop offset="1" stop-color="white" stop-opacity="0"/>
</radialGradient>
</defs>
</svg>
